# xmcd
#
# Track frame offsets:
#	150
#	16738
#	29791
#	50646
#	66631
#	86176
#	99149
#	110844
#	125758
#	143295
#	162397
#	173152
#	184495
#	199883
#	221764
#	236526
#	248678
#
# Disc length: 3474 seconds
#
# Revision: 0
# Processed by: cddbd v1.5.2PL0 Copyright (c) Steve Scherf et al.
# Submitted via: EasyCDDAExtractor 12.1.0.1
#
DISCID=fe0d9011
DTITLE=Various Artist - 팝101 CD3
DYEAR=1900
DGENRE=POP
TTITLE0=Bread - Aubrey
TTITLE1=England Dan and John Ford Coley - It's Sad to Belong
TTITLE2=Color Me Badd - Wildflower
TTITLE3=Jack Wagner - All I Need
TTITLE4=The Corrs - What Can I Do
TTITLE5=Bobby Darin - Beyond the Sea
TTITLE6=Edison Lighthouse - Love Grows (Where My Rosemary Goes)
TTITLE7=F.R. David - Music
TTITLE8=Goombay Dance Band - Seven Tears
TTITLE9=Tower of Power - What Happened to the World That Day?
TTITLE10=The Lovin' Spoonful - Daydream
TTITLE11=Paul and Paula - Hey Paula
TTITLE12=Dan Hill - It's a Long Road
TTITLE13=Gerard Joling - Change of Heart
TTITLE14=Judy Collins - Both Sides Now
TTITLE15=Sam and Dave - Soul Man
TTITLE16=Skeeter Davis - End of the World
EXTD=
EXTT0=
EXTT1=
EXTT2=
EXTT3=
EXTT4=
EXTT5=
EXTT6=
EXTT7=
EXTT8=
EXTT9=
EXTT10=
EXTT11=
EXTT12=
EXTT13=
EXTT14=
EXTT15=
EXTT16=
PLAYORDER=
